<?xml version="1.0" encoding="UTF-8"?>
<svg version="1.1" xmlns="http://www.w3.org/2000/svg" width="273" height="216">
<path d="M0 0 C90.09 0 180.18 0 273 0 C273 71.28 273 142.56 273 216 C182.91 216 92.82 216 0 216 C0 144.72 0 73.44 0 0 Z " fill="#F4F5F3" transform="translate(0,0)"/>
<path d="M0 0 C1.30437515 0.00922989 1.30437515 0.00922989 2.63510132 0.01864624 C22.27925627 0.16027239 41.98984927 1.05843971 60.4375 8.4375 C60.4375 19.3275 60.4375 30.2175 60.4375 41.4375 C56.8075 39.1275 53.1775 36.8175 49.4375 34.4375 C38.28882442 28.73352645 26.93987442 25.95322294 14.4375 25.4375 C13.78652344 25.41026855 13.13554687 25.38303711 12.46484375 25.35498047 C-3.57358736 24.77646174 -21.22013101 25.40493761 -33.9375 36.51171875 C-43.14656282 46.21170588 -46.03702253 57.66693502 -45.8125 70.7734375 C-45.08020604 81.50612091 -42.25544485 90.83203809 -35.3125 99.125 C-18.15044153 113.55673098 2.58267282 112.87478567 24.08935547 111.23535156 C36.23853025 109.85742247 47.45510804 105.38244933 56.94921875 97.63671875 C58.4375 96.4375 58.4375 96.4375 60.4375 95.4375 C60.4375 106.6575 60.4375 117.8775 60.4375 129.4375 C41.57402889 135.24164496 23.32588491 137.81598502 3.6875 137.8125 C2.39287842 137.81411133 1.09825684 137.81572266 -0.2355957 137.81738281 C-24.40374449 137.53871605 -47.02409858 133.19952403 -64.5625 115.4375 C-65.13613281 114.88578125 -65.70976563 114.3340625 -66.30078125 113.765625 C-80.12282633 99.33640998 -80.18296006 78.52190505 -79.90625 59.89453125 C-79.42057732 43.68318203 -73.09427063 30.55249944 -62.0390625 18.7578125 C-45.25770503 3.03521575 -21.99877624 -0.31420438 0 0 Z " fill="#16626E" transform="translate(191.5625,66.5625)"/>
<path d="M0 0 C45.21 0 90.42 0 137 0 C137 9.9 137 19.8 137 30 C134.36 28.68 131.72 27.36 129 26 C124.82018418 24.7758414 120.60020576 24.82969353 116.2722168 24.79467773 C115.51070816 24.78477814 114.74919952 24.77487854 113.96461487 24.76467896 C111.45951394 24.7332118 108.95439408 24.7083653 106.44921875 24.68359375 C104.70758077 24.66301144 102.96594765 24.64201463 101.22431946 24.62062073 C96.64919982 24.56553193 92.07403609 24.51606468 87.49884033 24.46777344 C82.00462796 24.40860995 76.51049585 24.34245481 71.01634979 24.27747345 C62.67761571 24.17962999 54.33882921 24.09066041 46 24 C46 37.2 46 50.4 46 64 C57.55 64 69.1 64 81 64 C80.34 65.98 79.68 67.96 79 70 C78.49084732 71.60128518 77.99040037 73.2053727 77.5 74.8125 C77.2628125 75.58207031 77.025625 76.35164063 76.78125 77.14453125 C75.71005502 81.05974889 74.88054496 85.03754767 74 89 C65.09 89 56.18 89 47 89 C47.05126428 93.28825719 47.11447827 97.57301536 47.20751953 101.86010742 C47.23559586 103.3157196 47.25687632 104.77148046 47.27099609 106.22729492 C47.15888986 117.34607776 47.15888986 117.34607776 52 127 C54.95849927 129.33414647 54.95849927 129.33414647 58 131 C58.99 131.66 59.98 132.32 61 133 C40.21 133 19.42 133 -2 133 C1 131 1 131 2.9375 130.02734375 C3.9584375 129.48787109 3.9584375 129.48787109 5 128.9375 C5.680625 128.59589844 6.36125 128.25429687 7.0625 127.90234375 C11.85851382 123.19335437 12.34453355 115.84012591 12.41769409 109.43257141 C12.41319244 108.51437119 12.4086908 107.59617096 12.40405273 106.65014648 C12.41434761 105.16052399 12.41434761 105.16052399 12.42485046 103.64080811 C12.4430338 100.38408798 12.43929384 97.12785335 12.43359375 93.87109375 C12.43815876 91.59383489 12.44346529 89.3165774 12.44947815 87.0393219 C12.458392 82.27754095 12.45600472 77.51592788 12.44604492 72.75415039 C12.43454247 66.6623283 12.45479564 60.57108477 12.48396206 54.47933865 C12.50233335 49.78062788 12.50202995 45.08205563 12.49632454 40.38331795 C12.49617152 38.13751474 12.50219968 35.89170204 12.51461601 33.64593315 C12.52954579 30.50374162 12.51883451 27.36261782 12.50170898 24.22045898 C12.51137695 23.30023453 12.52104492 22.38001007 12.53100586 21.43190002 C12.46341093 15.48873827 11.37181406 10.96523215 8 6 C5.97613931 4.1189932 5.97613931 4.1189932 3.75 3.0625 C2.49385599 2.38629109 1.24176695 1.70226141 0 1 C0 0.67 0 0.34 0 0 Z " fill="#16616D" transform="translate(29,26)"/>
</svg>
